 <svg  version="1.0" xmlns="http://www.w3.org/2000/svg"  width="300.000000pt" height="171.000000pt" viewBox="0 0 300.000000 171.000000"  preserveAspectRatio="xMidYMid meet">  <g transform="translate(0.000000,171.000000) scale(0.100000,-0.100000)" fill="#f0f0f0" stroke="none"> <path d="M100 1689 c-36 -17 -51 -19 -72 -11 -27 10 -28 9 -28 -19 0 -18 4 -28 10 -24 23 14 49 13 56 -3 6 -14 8 -13 14 8 5 18 12 24 28 23 12 -2 22 2 22 7 0 6 10 14 23 19 16 6 24 4 29 -8 11 -26 9 -41 -6 -41 -7 0 -20 -8 -27 -17 -12 -15 -12 -16 4 -10 11 4 16 3 12 -4 -4 -5 -16 -7 -26 -4 -16 5 -20 3 -17 -11 2 -14 -12 -24 -59 -44 -38 -15 -63 -31 -63 -40 0 -13 2 -13 9 0 6 8 24 14 45 13 25 -1 37 4 41 17 3 9 24 25 46 35 22 10 56 36 75 58 34 37 38 38 60 26 23 -12 28 -10 57 19 l32 32 -41 0 c-32 0 -49 -7 -81 -35 -40 -34 -41 -34 -47 -12 -8 32 -8 35 12 40 9 3 -1 5 -23 6 -22 0 -60 -9 -85 -20z"/> <path d="M424 1694 c3 -8 2 -13 -3 -10 -8 5 -31 -36 -31 -56 0 -14 35 18 62 55 l19 27 -26 0 c-20 0 -26 -4 -21 -16z"/> <path d="M515 1660 c-54 -55 -53 -68 2 -20 18 17 41 30 51 30 9 0 28 9 41 19 l23 18 -34 1 c-29 1 -42 -7 -83 -48z"/> <path d="M720 1663 c-18 -25 -54 -58 -81 -75 -27 -16 -46 -34 -43 -39 3 -5 2 -8 -3 -7 -11 4 -54 -27 -47 -34 6 -7 98 40 145 73 19 14 41 25 49 24 8 0 17 13 20 31 9 41 18 54 44 64 17 6 14 8 -16 8 -31 0 -40 -6 -68 -45z"/> <path d="M832 1698 c7 -19 35 -21 41 -3 5 11 0 15 -19 15 -16 0 -24 -5 -22 -12z"/> <path d="M1213 1677 c-32 -48 -105 -198 -99 -204 9 -9 57 50 52 63 -6 17 64 125 99 152 l28 22 -29 0 c-22 0 -35 -9 -51 -33z"/> <path d="M1315 1659 c-28 -28 -66 -59 -86 -69 -19 -10 -42 -27 -49 -37 -12 -15 -12 -16 0 -5 8 6 24 12 37 12 12 0 37 15 55 34 90 92 111 116 102 116 -5 0 -32 -23 -59 -51z"/> <path d="M1645 1669 c-22 -23 -35 -40 -30 -38 6 3 42 20 80 39 58 29 66 35 46 38 -15 2 -30 -3 -37 -12 -14 -20 -28 -21 -20 -1 8 22 4 19 -39 -26z"/> <path d="M1871 1692 c-6 -10 -25 -29 -44 -42 -34 -24 -64 -60 -49 -60 4 0 24 15 44 33 19 17 54 43 77 56 22 14 39 27 37 29 -2 2 -17 -5 -33 -15 -25 -16 -27 -16 -14 0 8 10 9 17 3 17 -6 0 -16 -8 -21 -18z"/> <path d="M2955 1690 c-10 -11 -15 -20 -10 -20 4 0 1 -7 -6 -17 -13 -15 -12 -15 11 -3 16 8 20 15 12 18 -10 3 -10 7 -2 17 6 8 18 11 26 8 8 -3 14 0 14 6 0 18 -25 13 -45 -9z"/> <path d="M2674 1690 c-28 -4 -75 -15 -103 -25 -44 -14 -60 -15 -98 -6 -25 7 -47 10 -49 8 -2 -2 -7 -17 -10 -34 -8 -41 17 -50 61 -23 34 21 139 60 161 60 7 0 11 -8 9 -20 -2 -11 1 -20 8 -20 6 0 -4 -13 -23 -30 -22 -18 -29 -29 -20 -30 12 0 11 -3 -3 -11 -35 -21 -178 -68 -224 -75 -27 -3 -63 -15 -80 -26 -30 -18 -53 -18 -53 1 0 4 41 33 90 65 50 32 89 61 86 63 -3 3 -26 -9 -51 -26 -25 -17 -51 -31 -56 -31 -6 0 -19 -10 -28 -22 -13 -16 -34 -23 -80 -29 -76 -9 -97 -23 -55 -39 16 -6 41 -10 55 -8 22 3 25 1 21 -15 -3 -13 -7 -15 -12 -7 -5 8 -10 1 -15 -19 -4 -18 -4 -35 -1 -39 4 -3 31 20 60 51 28 31 57 57 63 57 6 0 29 -7 52 -15 41 -14 41 -14 55 14 16 30 81 58 90 37 3 -7 11 -4 23 9 10 11 48 35 85 53 72 36 148 96 148 117 0 13 -23 26 -43 24 -7 -1 -35 -5 -63 -9z m42 -27 c12 -17 13 -17 19 0 9 21 24 23 21 1 -3 -22 -49 -49 -70 -41 -23 9 -32 37 -15 48 21 13 30 11 45 -8z"/> <path d="M933 1680 c-13 -5 -47 -33 -77 -62 -30 -29 -62 -58 -73 -65 -17 -11 -17 -12 0 -12 9 -1 17 -9 17 -18 0 -12 7 -7 20 14 10 18 34 39 52 49 35 17 108 82 108 96 0 10 -19 9 -47 -2z m12 -20 c6 -9 -74 -74 -83 -66 -4 5 63 76 72 76 3 0 8 -4 11 -10z"/> <path d="M2235 1673 c-16 -8 -47 -31 -67 -51 -20 -19 -54 -43 -75 -53 l-38 -19 32 3 c30 3 32 1 27 -20 -9 -33 1 -29 24 11 12 20 31 36 48 40 28 7 114 81 114 98 0 13 -33 8 -65 -9z m45 -8 c-27 -32 -140 -97 -140 -80 0 12 105 85 116 81 7 -3 16 -1 19 4 4 6 9 10 12 10 3 0 0 -7 -7 -15z"/> <path d="M1017 1653 c-20 -14 -46 -41 -58 -59 -12 -20 -29 -34 -40 -34 -10 0 -19 -5 -19 -11 0 -6 7 -9 15 -5 10 3 15 -1 16 -12 0 -13 3 -12 11 6 6 12 17 22 24 22 19 0 76 52 97 89 23 39 7 40 -46 4z m23 -10 c0 -14 -54 -63 -69 -63 -10 0 -3 12 19 35 32 33 50 43 50 28z"/> <path d="M1500 1653 c-25 -8 -51 -20 -58 -26 -8 -6 -26 -12 -40 -13 -15 -1 -33 -2 -39 -3 -7 0 -13 -13 -13 -27 0 -17 -14 -42 -40 -70 -22 -24 -45 -55 -51 -67 -6 -14 -33 -34 -62 -47 l-52 -24 43 -4 44 -3 -7 -40 c-4 -21 -4 -39 -1 -39 11 0 46 64 46 84 0 25 28 56 45 50 7 -3 18 4 25 15 12 23 70 57 70 41 0 -20 20 -9 35 20 9 18 23 30 36 30 11 0 22 8 26 18 3 9 21 34 40 55 57 64 41 81 -47 50z m53 -30 c-17 -25 -38 -30 -46 -10 -4 7 -6 6 -6 -4 -1 -9 -13 -24 -27 -34 -14 -9 -23 -19 -20 -23 4 -3 20 5 38 18 17 12 28 18 24 11 -10 -15 -122 -91 -135 -91 -6 0 -35 -20 -65 -44 -30 -25 -57 -42 -60 -39 -15 15 128 177 167 189 12 4 24 10 27 13 7 10 82 37 101 37 15 0 15 -3 2 -23z"/> <path d="M2033 1643 c-40 -14 -73 -30 -73 -35 0 -13 -87 -119 -128 -156 -37 -32 -37 -33 -9 -26 27 6 28 5 21 -22 -9 -37 0 -29 29 26 12 24 32 48 42 54 11 6 22 13 25 16 3 3 18 12 33 19 40 21 147 120 147 137 0 18 0 18 -87 -13z m30 -22 c3 -14 -7 -28 -41 -53 -64 -46 -102 -69 -102 -61 0 3 -10 -2 -21 -13 -22 -19 -22 -19 -11 1 17 32 144 145 163 145 4 0 9 -9 12 -19z"/> <path d="M594 1647 c-12 -7 -45 -34 -75 -61 -30 -27 -48 -46 -41 -42 7 4 12 2 12 -5 0 -7 10 -3 23 9 13 12 29 22 35 22 20 0 90 48 102 70 9 17 8 20 -12 20 -13 -1 -33 -6 -44 -13z m26 -22 c-15 -19 -63 -45 -81 -45 -7 0 -5 8 6 20 10 11 21 17 25 15 4 -3 11 2 14 11 4 9 13 14 21 10 8 -3 15 0 15 6 0 6 3 8 6 5 4 -4 1 -14 -6 -22z"/> <path d="M293 1613 c-29 -21 -52 -41 -52 -45 -1 -3 22 2 50 12 51 19 89 45 89 62 0 19 -38 6 -87 -29z m40 -4 c-40 -27 -53 -23 -20 6 16 14 33 22 39 19 5 -4 -3 -15 -19 -25z"/> <path d="M1667 1617 c-32 -17 -79 -53 -105 -78 -26 -26 -62 -54 -79 -63 -39 -20 -54 -41 -18 -24 21 9 28 9 34 0 5 -8 14 -2 30 19 13 18 28 28 37 25 8 -3 14 -1 14 4 0 6 9 10 20 10 11 0 23 7 26 15 4 8 12 15 20 15 16 0 104 84 104 99 0 18 -22 12 -83 -22z m43 -13 c-31 -36 -184 -124 -165 -94 12 19 147 110 156 104 5 -3 9 0 9 7 0 7 3 9 6 6 4 -4 1 -14 -6 -23z"/> <path d="M1885 1624 c-16 -8 -43 -28 -60 -43 -16 -16 -38 -31 -48 -34 -15 -6 -16 -9 -5 -21 11 -12 15 -13 23 -1 6 7 27 20 48 28 39 17 87 59 87 77 0 14 -10 13 -45 -6z m10 -24 c-10 -16 -65 -42 -65 -31 0 13 40 41 58 41 7 0 10 -5 7 -10z"/> <path d="M2950 1605 c-37 -37 -60 -44 -60 -20 0 19 -2 19 -67 -2 -30 -9 -59 -25 -64 -35 -5 -10 -18 -18 -29 -18 -31 0 -50 -11 -50 -30 0 -10 -20 -33 -45 -51 -25 -19 -56 -42 -68 -52 l-22 -19 23 5 c17 4 22 1 22 -16 0 -19 3 -17 20 11 15 24 27 32 49 32 16 0 34 7 41 15 7 8 18 15 24 15 13 0 70 69 63 76 -3 3 -13 -6 -23 -19 -18 -22 -63 -49 -114 -68 -38 -14 69 80 132 115 l51 29 -6 -38 -6 -38 22 20 c42 39 60 43 87 21 14 -11 20 -17 14 -14 -6 3 -20 -5 -31 -17 -11 -12 -29 -28 -39 -35 -18 -11 -17 -12 4 -6 21 5 23 3 17 -15 -10 -33 -1 -25 44 34 23 31 46 53 52 50 5 -4 9 0 9 7 0 10 -10 13 -35 10 -19 -2 -35 -1 -35 3 0 12 51 56 59 51 4 -3 8 4 8 15 2 27 -8 24 -47 -16z"/> <path d="M1059 1596 c-40 -30 -79 -75 -79 -90 0 -11 67 35 99 68 48 49 35 64 -20 22z m-4 -36 c-22 -24 -55 -29 -35 -5 7 8 16 13 20 10 4 -3 11 2 14 11 4 9 9 14 13 10 3 -3 -2 -15 -12 -26z"/> <path d="M2275 1601 c-27 -16 -59 -38 -69 -50 -17 -19 -17 -21 -2 -21 28 0 90 30 119 57 52 51 28 58 -48 14z m35 -1 c0 -11 -59 -50 -75 -50 -5 1 3 12 18 25 16 14 33 23 38 20 5 -4 9 -1 9 4 0 6 2 11 5 11 3 0 5 -5 5 -10z"/> <path d="M359 1566 c-31 -12 -72 -32 -91 -44 -24 -15 -51 -22 -87 -22 -55 0 -52 3 -56 -66 0 -11 -29 -48 -63 -81 -43 -41 -62 -67 -62 -84 0 -19 2 -21 10 -9 6 9 10 10 10 3 0 -6 -4 -15 -10 -18 -5 -3 -10 -21 -10 -38 1 -30 2 -29 33 28 32 60 32 60 81 63 41 3 54 9 82 38 18 20 38 33 44 29 7 -4 27 11 46 34 20 23 42 41 49 41 8 0 19 8 24 19 6 10 26 37 46 60 36 44 45 71 23 71 -7 0 -38 -11 -69 -24z m29 -26 c10 -17 10 -21 -4 -27 -11 -4 -22 1 -30 12 -13 17 -14 17 -14 2 0 -10 -15 -31 -32 -48 l-33 -31 33 26 c55 43 74 31 24 -14 -62 -56 -146 -109 -203 -129 -27 -10 -57 -25 -67 -34 -20 -18 -42 -23 -42 -9 0 14 179 176 220 200 22 12 59 33 83 47 52 30 49 29 65 5z"/> <path d="M229 1422 c-19 -15 -46 -35 -60 -45 -23 -17 -23 -17 9 0 32 17 103 72 92 72 -3 0 -21 -12 -41 -27z"/> <path d="M673 1535 c-54 -57 -55 -73 -2 -43 36 20 79 65 79 82 0 20 -40 0 -77 -39z m22 -12 c-15 -13 -30 -22 -33 -18 -9 9 40 55 51 48 6 -4 -2 -16 -18 -30z"/> <path d="M2462 1564 c-18 -8 -38 -11 -44 -8 -6 4 -8 3 -5 -3 4 -6 -7 -16 -23 -23 -17 -7 -29 -14 -27 -16 2 -3 37 11 78 30 71 33 88 49 21 20z"/> <path d="M1668 1510 c-23 -22 -46 -40 -52 -40 -6 0 -4 -5 4 -10 10 -6 20 -4 31 6 8 7 20 14 26 14 10 0 44 34 57 58 16 28 -28 10 -66 -28z"/> <path d="M2594 1515 c-16 -13 -16 -14 -1 -9 23 8 22 -13 -2 -26 -31 -16 -46 -13 -30 8 7 9 1 6 -14 -8 -37 -32 -18 -37 38 -10 51 25 79 60 47 60 -10 0 -27 -7 -38 -15z"/> <path d="M453 1494 c-51 -30 -54 -38 -10 -29 37 8 77 31 77 45 0 17 -23 11 -67 -16z"/> <path d="M1794 1500 c-39 -25 -98 -98 -99 -123 -2 -17 0 -17 16 4 10 13 19 27 19 31 0 4 9 10 20 13 44 14 119 95 88 95 -7 0 -27 -9 -44 -20z m21 -9 c3 -5 -9 -20 -27 -32 -31 -22 -31 -12 0 24 17 20 19 20 27 8z"/> <path d="M1978 1497 c-20 -12 -46 -34 -57 -48 l-20 -26 44 15 c45 14 95 52 95 72 0 16 -22 12 -62 -13z m32 -7 c0 -5 -13 -16 -30 -25 -35 -18 -41 -4 -8 19 26 18 38 20 38 6z"/> <path d="M824 1481 c-49 -29 -120 -98 -110 -108 20 -20 176 88 176 123 0 20 -8 18 -66 -15z m35 -8 c-30 -38 -65 -63 -81 -59 -10 2 -18 -1 -18 -7 0 -6 -3 -7 -6 -4 -10 10 18 39 32 33 7 -3 18 3 26 12 11 15 11 16 -2 7 -9 -5 -7 -2 3 7 11 10 23 16 27 13 5 -3 11 -1 15 5 3 5 9 10 12 10 3 0 -1 -8 -8 -17z"/> <path d="M992 1451 c-32 -32 -64 -62 -73 -67 -14 -7 -15 -11 -4 -21 11 -10 17 -7 29 12 9 14 23 25 30 25 18 0 70 43 97 81 l20 29 -21 0 c-14 0 -44 -23 -78 -59z m58 25 c0 -16 -58 -61 -67 -53 -5 6 50 67 61 67 3 0 6 -6 6 -14z"/> <path d="M31 1471 c-14 -10 -25 -31 -27 -51 l-4 -34 27 25 c36 32 62 62 63 72 0 13 -35 7 -59 -12z m29 -9 c0 -14 -39 -46 -47 -39 -3 4 2 16 12 27 19 21 35 26 35 12z"/> <path d="M690 1470 c-29 -15 -80 -68 -80 -84 0 -10 77 34 99 57 32 35 23 49 -19 27z"/> <path d="M929 1462 c-19 -15 -49 -39 -67 -51 -18 -13 -31 -25 -29 -27 9 -9 54 17 97 55 51 46 50 67 -1 23z"/> <path d="M1135 1463 c-16 -8 -43 -28 -60 -43 -16 -15 -39 -32 -50 -38 -17 -10 -17 -11 -3 -12 12 0 16 -5 12 -17 -4 -12 2 -8 17 9 13 14 34 29 47 33 30 9 82 53 82 71 0 18 -7 17 -45 -3z m10 -22 c-3 -6 -19 -18 -36 -26 -40 -21 -38 0 3 25 33 20 45 20 33 1z"/> <path d="M2060 1466 c-33 -10 -127 -92 -117 -102 6 -6 99 35 119 53 10 9 15 20 11 26 -3 6 -1 7 6 3 6 -4 14 0 17 9 9 22 4 23 -36 11z m0 -29 c0 -13 -27 -32 -66 -47 -22 -9 -24 -8 -14 10 10 18 54 49 73 50 4 0 7 -6 7 -13z"/> <path d="M535 1455 c-27 -6 -73 -24 -102 -38 -31 -16 -69 -27 -92 -27 -44 0 -50 -5 -53 -45 -2 -17 -16 -38 -38 -57 -19 -17 -51 -45 -71 -63 -27 -23 -50 -34 -87 -39 -76 -10 -96 -46 -25 -46 l34 0 -7 -47 c-6 -44 -6 -47 10 -34 9 8 28 33 41 55 33 56 54 67 100 55 35 -10 39 -9 70 26 27 29 38 35 58 30 20 -5 27 -2 32 14 3 11 21 29 39 40 43 27 156 146 156 165 0 22 -10 24 -65 11z m42 -22 c-8 -10 -15 -20 -14 -23 1 -3 -13 -21 -31 -40 -18 -19 -30 -27 -26 -17 3 9 11 17 18 17 6 0 3 5 -6 11 -10 5 -18 18 -18 28 0 22 30 37 41 20 4 -6 12 -8 18 -5 6 4 9 12 6 17 -4 5 2 9 11 9 16 0 16 -1 1 -17z m-112 -85 c-36 -30 -47 -55 -19 -44 9 3 12 2 9 -4 -10 -17 -155 -86 -216 -104 -31 -9 -62 -23 -69 -31 -12 -14 -30 -12 -30 4 0 4 33 32 72 62 40 29 82 64 94 76 11 12 56 42 100 67 76 43 79 44 87 24 6 -17 0 -27 -28 -50z"/> <path d="M2785 1438 c-11 -6 -37 -26 -58 -45 -31 -28 -34 -33 -16 -33 26 0 57 16 92 48 41 39 30 57 -18 30z m-4 -40 c-13 -10 -31 -18 -40 -18 -12 1 -9 7 12 25 16 14 33 22 39 19 7 -5 3 -14 -11 -26z"/> <path d="M2420 1406 c-30 -12 -77 -34 -103 -48 -44 -23 -47 -26 -26 -31 15 -4 26 -1 31 7 4 8 31 17 60 20 55 7 128 41 136 64 6 19 -37 14 -98 -12z m65 -5 c-7 -13 -111 -44 -127 -39 -6 2 12 14 41 27 29 12 59 20 67 17 8 -3 14 0 14 6 0 6 3 9 6 5 3 -3 3 -10 -1 -16z"/> <path d="M2882 1394 c-18 -14 -41 -42 -52 -62 -11 -21 -28 -48 -37 -62 -17 -24 -17 -25 2 -10 39 30 145 139 145 149 0 18 -23 12 -58 -15z m-6 -52 c-35 -36 -43 -22 -9 18 16 20 29 28 31 20 3 -7 -7 -24 -22 -38z"/> <path d="M1475 1390 c-27 -11 -57 -18 -65 -16 -8 3 -25 7 -38 11 -17 5 -24 1 -31 -17 -5 -13 -5 -28 0 -34 6 -7 -10 -26 -46 -55 -31 -24 -62 -54 -71 -66 -8 -13 -32 -32 -54 -43 -47 -24 -51 -35 -10 -27 28 6 29 5 24 -26 l-6 -32 26 30 c14 17 32 38 41 47 8 11 21 15 31 11 10 -4 22 0 29 10 19 26 105 59 121 47 9 -9 17 -5 29 13 13 20 63 51 85 52 3 0 14 8 25 17 11 9 35 29 53 43 17 15 32 33 32 41 0 22 -114 17 -175 -6z m140 0 c3 5 11 10 18 10 6 0 2 -10 -10 -22 -15 -14 -37 -23 -64 -24 -23 -1 -49 -9 -57 -18 -14 -14 -14 -16 -1 -16 8 0 24 7 36 15 13 9 24 11 28 5 6 -10 -115 -74 -200 -106 -27 -10 -71 -30 -97 -46 -26 -15 -50 -23 -52 -19 -10 15 170 173 201 177 9 2 37 12 64 23 54 24 74 26 63 9 -4 -6 3 -4 16 5 17 11 27 13 36 6 8 -7 14 -7 19 1z"/> <path d="M2045 1360 c-27 -16 -60 -30 -72 -30 -18 0 -23 -6 -23 -24 0 -30 -69 -113 -116 -140 -41 -24 -44 -35 -8 -28 25 4 26 3 20 -22 -3 -14 -2 -26 3 -26 12 0 23 29 14 42 -3 6 -1 8 5 4 6 -3 13 3 17 14 3 11 11 20 16 20 19 0 126 89 173 142 71 81 59 100 -29 48z m15 -34 c0 -16 -76 -86 -149 -138 -72 -52 -51 -16 50 85 72 72 99 87 99 53z"/> <path d="M2962 1360 c-18 -11 -41 -34 -50 -50 -9 -16 -23 -30 -31 -30 -10 0 -11 -3 -2 -13 6 -8 7 -18 3 -23 -4 -4 21 19 56 52 34 34 62 66 62 73 0 14 1 14 -38 -9z"/> <path d="M1869 1351 l-24 -20 23 -1 c12 0 25 7 29 15 9 25 -2 27 -28 6z"/> <path d="M629 1342 c-48 -32 -84 -77 -112 -138 -15 -34 -27 -66 -27 -71 0 -6 -10 -23 -22 -38 -21 -27 -33 -85 -17 -85 4 0 15 10 24 23 9 12 26 36 38 54 12 17 46 62 75 99 53 68 63 94 37 94 -17 0 -39 -36 -30 -50 6 -10 -96 -142 -103 -135 -2 2 14 38 35 80 39 79 103 161 116 149 4 -4 2 -13 -4 -21 -9 -9 -8 -13 0 -13 6 0 16 12 21 26 19 48 11 55 -31 26z"/> <path d="M2777 1342 c-10 -10 -17 -22 -17 -27 0 -4 -11 -23 -26 -42 -14 -18 -22 -38 -18 -45 4 -7 3 -8 -4 -4 -6 4 -18 -6 -27 -24 -8 -16 -14 -30 -12 -30 18 0 81 77 102 124 28 63 28 77 2 48z"/> <path d="M765 1316 c-20 -19 -43 -37 -51 -40 -8 -3 -13 -10 -10 -15 3 -5 -1 -12 -10 -15 -10 -4 -14 -13 -10 -22 3 -8 0 -27 -8 -42 -8 -15 -21 -54 -30 -86 -9 -35 -26 -71 -43 -88 l-28 -30 32 6 c29 7 32 5 38 -23 10 -48 25 -26 25 36 0 37 5 60 14 67 14 10 74 113 98 166 6 14 19 43 30 66 10 22 18 43 18 47 0 17 -32 4 -65 -27z m45 -2 c0 -3 -11 -20 -25 -39 -14 -18 -28 -42 -30 -54 -2 -11 -20 -49 -41 -83 -20 -35 -43 -74 -50 -88 -9 -16 -14 -19 -14 -9 0 42 82 227 104 235 9 3 18 14 21 25 6 17 35 28 35 13z"/> <path d="M1049 1321 c-24 -15 -57 -42 -73 -60 -17 -17 -36 -31 -43 -31 -7 0 -13 -5 -13 -11 0 -5 5 -7 10 -4 6 3 10 -2 10 -12 0 -16 2 -16 18 3 9 12 25 24 35 27 26 10 125 86 131 103 9 23 -26 17 -75 -15z m31 -5 c0 -13 -57 -56 -92 -69 -29 -11 -21 0 33 43 57 45 59 46 59 26z"/> <path d="M940 1332 c-9 -4 -25 -14 -35 -22 -26 -20 -115 -126 -115 -137 0 -4 5 0 11 10 6 9 13 15 17 13 4 -2 18 11 31 30 13 19 31 34 40 34 18 0 91 56 91 71 0 10 -18 11 -40 1z"/> <path d="M1711 1310 c-24 -11 -54 -20 -67 -20 -19 0 -24 -5 -24 -25 0 -14 -4 -25 -10 -25 -5 0 -35 -31 -66 -70 -31 -38 -62 -70 -68 -70 -7 0 -21 -7 -32 -16 -18 -14 -17 -15 18 -12 25 3 34 0 29 -7 -5 -5 -12 -26 -16 -45 -7 -30 -6 -33 7 -22 9 7 23 32 32 56 10 27 27 48 44 57 15 8 29 16 32 19 3 3 21 14 40 24 47 27 54 32 122 97 32 31 58 61 58 67 0 18 -50 14 -99 -8z m78 -7 c-25 -31 -49 -53 -49 -45 0 4 -13 -7 -28 -25 -15 -17 -49 -44 -77 -59 -27 -15 -67 -40 -87 -56 -62 -49 -43 -14 35 62 79 79 137 116 155 98 7 -7 10 -5 9 8 -1 13 4 18 15 16 9 -1 19 2 23 8 3 5 9 10 12 10 3 0 -1 -8 -8 -17z"/> <path d="M2131 1304 c-38 -32 -40 -47 -3 -32 32 14 62 38 62 50 0 16 -29 8 -59 -18z"/> <path d="M2360 1304 c-12 -30 -6 -44 18 -44 9 0 -8 -15 -38 -32 -30 -18 -60 -31 -66 -30 -7 1 -14 -5 -18 -13 -9 -24 -69 -45 -131 -45 -30 0 -55 -4 -55 -8 0 -11 46 -32 69 -32 16 0 18 -7 14 -47 l-4 -48 43 47 c57 63 83 72 127 45 27 -16 35 -18 42 -6 5 8 13 19 17 24 4 6 25 16 46 22 34 10 41 10 51 -4 11 -15 14 -14 29 9 9 14 31 32 49 39 53 21 157 90 168 111 8 16 8 23 -2 30 -16 10 -143 2 -206 -14 -34 -8 -52 -7 -89 6 -59 20 -53 21 -64 -10z m234 -21 c-4 -14 -2 -23 6 -23 6 0 8 -5 4 -12 -4 -6 -3 -8 4 -4 6 3 13 3 16 -2 5 -9 -105 -64 -164 -81 -19 -6 -70 -15 -113 -21 -42 -5 -91 -17 -108 -26 -26 -13 -33 -13 -40 -3 -6 10 8 21 47 40 30 15 61 32 68 38 7 6 16 8 19 4 4 -3 7 -1 7 5 0 7 5 12 11 12 5 0 8 -4 4 -9 -3 -5 -1 -12 5 -16 6 -4 7 -11 4 -17 -5 -7 -2 -8 5 -3 8 5 9 11 3 17 -13 13 -4 45 16 52 10 3 24 9 32 12 11 5 9 1 -4 -14 -10 -12 -23 -19 -29 -15 -6 3 -7 1 -3 -6 4 -6 12 -9 17 -6 5 4 9 1 9 -5 0 -7 6 -10 14 -7 7 3 20 0 27 -6 11 -10 11 -9 0 6 -7 9 -10 17 -6 17 4 0 3 6 -2 13 -15 19 -10 40 10 43 18 2 24 -5 29 -41 2 -13 -2 -19 -12 -17 -8 2 -11 0 -7 -4 4 -4 14 -9 21 -10 10 -1 12 11 10 50 -2 34 -1 44 5 31 5 -11 7 -23 4 -27 -2 -5 1 -8 7 -8 6 0 8 11 6 25 -3 14 0 25 5 25 5 0 10 -11 10 -25 2 -36 3 -43 10 -49 3 -3 5 15 4 41 -2 42 -1 45 11 28 9 -12 10 -23 5 -28 -10 -10 -4 -37 8 -37 4 0 6 20 4 43 -2 34 0 44 12 44 10 0 13 -7 9 -24z m71 10 c6 -17 7 -17 19 0 16 21 23 22 23 2 0 -8 -4 -12 -9 -9 -4 3 -8 1 -8 -3 0 -5 -13 -14 -30 -20 -33 -12 -57 4 -46 32 8 21 42 19 51 -2z"/> <path d="M1821 1263 c-28 -22 -81 -114 -81 -140 0 -11 70 59 101 101 28 38 37 66 22 66 -5 0 -23 -12 -42 -27z m19 -15 c-1 -18 -36 -58 -50 -58 -6 0 -8 -4 -5 -10 3 -5 1 -10 -4 -10 -17 0 -13 12 14 53 26 37 45 48 45 25z"/> <path d="M2215 1278 c-25 -14 -95 -80 -95 -90 0 -10 91 30 113 50 11 9 23 25 28 34 8 14 6 18 -8 18 -10 0 -27 -6 -38 -12z m15 -16 c0 -16 -38 -44 -55 -40 -15 3 -14 6 6 23 14 13 20 15 15 5 -4 -8 -1 -7 6 3 14 18 28 23 28 9z"/> <path d="M1069 1243 c-26 -44 -148 -127 -173 -117 -11 4 -19 -2 -25 -17 -5 -13 -21 -35 -36 -49 -38 -34 -115 -139 -115 -156 0 -9 12 -14 33 -14 34 0 88 30 160 88 21 17 48 34 58 37 15 5 17 10 9 20 -8 9 -2 20 25 43 21 20 33 37 29 46 -6 17 48 56 78 56 9 0 29 5 45 11 l28 12 -44 9 c-41 9 -43 11 -37 39 8 40 -9 36 -35 -8z m1 -59 c0 -3 -13 -17 -30 -31 -16 -13 -30 -29 -30 -34 0 -11 -108 -149 -116 -149 -2 0 0 9 6 20 14 26 -6 27 -34 2 -17 -16 -25 -17 -43 -7 -22 11 -21 13 34 61 109 94 213 161 213 138z m-236 -219 c4 -13 10 -14 26 -5 11 6 20 9 20 6 0 -10 -96 -59 -122 -62 -35 -4 -36 3 -2 16 14 6 22 15 19 20 -9 15 13 40 35 40 10 0 21 -7 24 -15z"/> <path d="M2975 1270 c3 -5 0 -7 -8 -4 -8 3 -20 -2 -27 -11 -12 -15 -10 -15 16 -9 16 4 32 9 37 11 13 7 7 23 -9 23 -8 0 -12 -4 -9 -10z"/> <path d="M464 1250 c-17 -11 -36 -31 -44 -44 -7 -14 -26 -30 -42 -37 -37 -15 -173 -161 -175 -189 -1 -11 2 -18 8 -15 5 4 9 13 9 21 0 23 69 92 122 121 28 15 54 38 59 50 5 13 20 27 33 33 24 9 76 58 76 72 0 13 -13 9 -46 -12z m-93 -114 c-6 -7 -22 -16 -34 -19 -20 -5 -19 -3 7 19 29 26 48 26 27 0z"/> <path d="M1513 1245 c-15 -13 -22 -25 -15 -25 19 0 72 29 72 40 0 18 -28 10 -57 -15z"/> <path d="M2825 1248 c-27 -14 -65 -50 -65 -59 0 -13 63 12 88 34 37 34 22 50 -23 25z m15 -18 c0 -12 -42 -31 -50 -23 -6 5 30 33 42 33 4 0 8 -5 8 -10z"/> <path d="M2025 1211 c-16 -10 -43 -33 -59 -50 -17 -17 -36 -31 -43 -31 -7 0 -13 -5 -13 -11 0 -6 7 -9 14 -6 11 4 13 1 10 -11 -3 -9 4 -5 16 11 12 15 28 27 35 27 20 0 85 59 85 76 0 19 -9 18 -45 -5z m15 -16 c0 -8 -13 -21 -30 -30 -16 -9 -30 -12 -30 -7 0 14 36 43 43 35 4 -3 7 -1 7 5 0 7 2 12 5 12 3 0 5 -7 5 -15z"/> <path d="M616 1188 c-9 -12 -16 -30 -16 -39 0 -9 -9 -28 -20 -42 -24 -30 -26 -49 -5 -41 8 4 15 11 15 16 0 5 9 22 20 38 27 38 41 78 30 85 -5 3 -16 -5 -24 -17z"/> <path d="M1495 1198 c-36 -20 -74 -56 -67 -63 4 -5 1 -5 -5 -1 -19 11 -39 -4 -22 -16 11 -7 11 -9 -1 -7 -28 3 -40 -1 -40 -12 0 -18 51 0 97 34 58 45 85 90 38 65z"/> <path d="M819 1149 c-27 -28 -49 -54 -49 -59 0 -5 -12 -13 -27 -18 -20 -7 -22 -11 -9 -11 12 -1 16 -6 12 -16 -3 -8 -1 -15 4 -15 6 0 10 7 10 15 0 8 20 28 45 45 40 28 95 87 95 103 0 21 -38 0 -81 -44z m21 -14 c-19 -19 -39 -35 -44 -35 -6 0 -3 7 7 14 9 7 17 18 17 24 0 13 41 44 49 37 2 -3 -11 -21 -29 -40z"/> <path d="M2836 1175 c-33 -14 -73 -25 -90 -25 -42 0 -58 -13 -54 -41 2 -19 -8 -32 -49 -61 -28 -21 -62 -38 -75 -38 -36 0 -68 -11 -62 -21 3 -5 15 -9 26 -9 21 0 21 0 -3 -27 -21 -23 -22 -25 -4 -18 48 18 56 18 49 -1 -3 -11 3 -4 15 14 21 32 44 41 56 22 10 -16 41 -11 59 9 10 11 40 28 67 37 27 10 56 28 64 41 9 13 22 23 30 23 8 0 15 4 15 9 0 5 16 28 35 51 19 23 35 46 35 51 0 16 -54 9 -114 -16z m93 -2 c-32 -41 -124 -125 -151 -139 -35 -18 -179 -56 -186 -49 -6 6 -10 3 58 45 30 18 66 45 80 59 22 22 109 71 127 71 3 0 -13 -20 -36 -45 -22 -24 -41 -48 -41 -52 0 -5 7 1 15 11 8 11 15 16 15 12 0 -4 12 6 26 23 14 17 29 29 34 26 4 -3 6 3 3 14 -5 19 21 36 38 25 5 -3 9 0 9 5 0 6 5 11 11 11 8 0 7 -6 -2 -17z"/> <path d="M2602 1163 c-29 -14 -102 -90 -102 -106 0 -3 19 5 43 18 81 46 134 125 59 88z m-16 -50 c-15 -13 -32 -20 -38 -17 -7 5 -1 16 16 31 15 13 32 20 38 17 7 -5 1 -16 -16 -31z"/> <path d="M1675 1150 c-11 -5 -41 -29 -67 -53 -36 -34 -44 -46 -32 -51 8 -3 17 1 20 8 3 8 17 17 31 21 35 8 105 87 76 84 -5 0 -17 -4 -28 -9z m-9 -22 c-3 -23 -17 -38 -33 -38 -13 0 -12 5 7 25 27 29 29 30 26 13z"/> <path d="M1315 1128 c-22 -11 -51 -29 -64 -39 -13 -11 -32 -19 -42 -19 -11 0 -19 -4 -19 -10 0 -5 6 -7 14 -4 11 4 13 0 10 -18 -5 -21 -4 -21 11 4 14 25 30 32 104 41 8 1 16 8 19 15 3 11 0 12 -17 2 -12 -6 -30 -10 -39 -8 -22 5 37 38 68 38 11 0 20 5 20 10 0 15 -21 11 -65 -12z"/> <path d="M1995 1111 c-16 -10 -41 -30 -54 -44 l-24 -26 34 9 c42 12 83 42 87 64 4 21 -6 20 -43 -3z"/> <path d="M202 1095 c-12 -14 -22 -27 -22 -30 0 -10 64 24 72 39 15 27 -25 20 -50 -9z"/> <path d="M364 1091 c-32 -20 -90 -88 -82 -96 2 -3 22 7 44 21 68 45 104 115 38 75z m6 -19 c0 -9 -25 -33 -49 -47 -10 -6 -12 -4 -6 6 22 38 55 63 55 41z"/> <path d="M1077 1085 c-20 -14 -37 -30 -37 -36 0 -5 -11 -21 -25 -34 -13 -14 -20 -25 -15 -25 5 0 10 -8 13 -17 3 -14 6 -11 11 9 5 15 16 30 27 33 10 4 32 23 49 43 48 58 39 68 -23 27z m-3 -42 c-30 -22 -39 -15 -13 13 15 16 25 21 28 13 2 -7 -4 -18 -15 -26z"/> <path d="M2867 1053 c-76 -69 -75 -68 -58 -58 9 5 12 4 7 -3 -4 -6 -13 -9 -20 -6 -7 3 -19 -2 -26 -11 -15 -18 -5 -19 38 -4 17 6 34 19 37 29 3 10 16 21 29 24 31 8 79 53 70 68 -4 6 -3 8 4 4 6 -3 13 -2 17 4 3 5 -3 10 -14 10 -12 0 -49 -25 -84 -57z m63 28 c0 -11 -40 -41 -54 -41 -5 0 1 11 14 25 24 26 40 32 40 16z"/> <path d="M2053 1068 c-24 -27 -39 -68 -24 -68 12 0 61 62 61 78 0 18 -15 14 -37 -10z"/> <path d="M1694 1064 c-35 -17 -94 -74 -76 -74 6 0 14 5 17 10 3 6 15 10 26 10 10 0 36 16 57 35 40 37 29 45 -24 19z"/> <path d="M1345 1053 c-16 -9 -50 -27 -75 -39 -25 -13 -37 -24 -27 -24 9 0 17 -6 17 -12 1 -9 5 -8 13 3 7 9 28 19 48 23 38 7 89 40 89 57 0 14 -32 11 -65 -8z m20 -13 c3 -6 -6 -15 -20 -20 -41 -16 -52 -11 -25 10 29 22 36 24 45 10z"/> <path d="M2378 1035 c-24 -19 -58 -45 -75 -56 -19 -12 -33 -29 -33 -41 0 -11 -9 -33 -20 -48 -11 -16 -31 -52 -44 -80 -13 -29 -39 -68 -58 -87 l-33 -34 28 10 c38 15 37 15 37 -15 0 -36 18 -20 26 24 9 48 21 72 38 72 8 0 17 11 20 25 4 14 13 25 22 25 8 0 17 8 21 18 3 9 22 34 41 54 20 21 33 40 30 43 -6 6 -148 -148 -166 -180 -7 -12 -12 -14 -12 -6 -1 56 174 290 192 257 5 -10 5 -24 -2 -36 -7 -13 -8 -26 -1 -37 7 -14 11 -10 20 22 6 22 18 49 26 59 8 11 15 26 15 33 0 23 -27 14 -72 -22z"/> <path d="M1825 1048 c-11 -6 -38 -27 -61 -47 -22 -20 -49 -41 -60 -48 -17 -11 -17 -12 -1 -12 9 -1 17 -9 17 -18 0 -12 7 -7 20 15 11 18 27 32 34 30 16 -3 106 67 106 82 0 13 -30 12 -55 -2z m19 -17 c7 -11 -54 -51 -75 -51 -8 1 2 14 21 30 37 32 46 35 54 21z"/> <path d="M2269 1045 c-14 -8 -34 -26 -43 -41 -18 -26 -17 -26 6 -19 35 11 78 45 78 61 0 17 -8 17 -41 -1z"/> <path d="M1104 1015 c-20 -19 -35 -38 -31 -41 11 -12 107 48 107 68 0 20 -42 5 -76 -27z"/> <path d="M58 1012 c-61 -29 -80 -57 -30 -46 42 10 88 33 108 55 16 18 16 19 -2 19 -10 0 -45 -13 -76 -28z m42 -2 c0 -12 -42 -31 -50 -23 -6 5 30 33 42 33 4 0 8 -5 8 -10z"/> <path d="M356 999 c-29 -23 -81 -98 -73 -105 11 -11 117 91 117 112 0 20 -13 17 -44 -7z m0 -37 c-14 -14 -28 -23 -31 -20 -9 9 36 59 47 52 6 -4 0 -17 -16 -32z"/> <path d="M479 1002 c-37 -24 -109 -88 -109 -95 0 -4 -16 -31 -35 -61 -25 -40 -44 -57 -70 -66 -43 -14 -47 -32 -5 -23 28 5 30 4 30 -26 0 -17 4 -31 9 -31 11 0 21 25 21 51 0 10 31 49 71 86 73 70 129 143 129 169 0 18 -9 18 -41 -4z m21 -23 c0 -6 -7 -9 -15 -5 -10 4 -15 -1 -15 -15 0 -21 -62 -93 -122 -141 l-39 -30 23 38 c12 21 49 66 81 101 55 59 87 78 87 52z"/> <path d="M1915 1001 c-39 -24 -110 -100 -119 -126 -4 -14 2 -11 21 12 16 17 39 34 53 38 56 16 133 95 93 95 -10 0 -31 -9 -48 -19z m35 -16 c0 -8 -72 -47 -77 -41 -11 11 28 45 45 39 10 -4 13 -2 8 5 -5 8 -2 10 8 6 9 -3 16 -8 16 -9z"/> <path d="M2913 1004 c-17 -9 -45 -31 -62 -50 -17 -19 -37 -34 -44 -34 -8 0 -7 -4 3 -10 10 -6 20 -5 30 4 8 8 24 16 36 20 26 8 77 61 73 75 -3 6 -16 4 -36 -5z m1 -35 c-3 -6 -13 -8 -21 -5 -8 3 -11 2 -8 -3 6 -11 -13 -26 -21 -18 -9 9 36 48 47 42 5 -4 7 -11 3 -16z"/> <path d="M1655 988 c-37 -20 -91 -74 -87 -86 4 -12 44 12 95 57 40 36 35 53 -8 29z"/> <path d="M2125 984 c-16 -8 -40 -25 -52 -36 -12 -11 -33 -26 -45 -32 -13 -7 -23 -21 -23 -31 0 -37 -57 -135 -97 -166 -45 -36 -44 -48 1 -24 31 15 31 15 31 -9 0 -36 18 -42 26 -9 3 15 8 36 11 46 3 10 29 44 59 75 62 64 127 164 122 187 -3 13 -7 13 -33 -1z m18 -31 c-3 -7 -9 -13 -13 -13 -4 0 -11 -10 -14 -22 -3 -13 -40 -59 -82 -103 -65 -70 -72 -75 -54 -40 43 84 61 111 100 151 39 39 73 55 63 27z"/> <path d="M100 959 c-36 -16 -42 -22 -30 -30 13 -9 12 -10 -2 -6 -22 8 -68 -14 -68 -32 0 -12 3 -11 18 1 9 9 33 18 53 22 37 7 89 40 89 57 0 13 -9 11 -60 -12z"/> <path d="M1185 960 c-25 -27 -14 -39 13 -13 13 11 19 24 14 27 -5 3 -17 -3 -27 -14z"/> <path d="M1500 955 c-108 -60 -168 -89 -210 -100 l-45 -12 33 -7 c20 -5 32 -14 32 -24 1 -12 5 -9 15 9 10 19 26 29 52 34 50 9 111 41 151 78 54 52 42 61 -28 22z m9 -26 c-33 -29 -87 -55 -129 -63 -28 -6 -19 1 40 33 41 22 82 44 90 49 25 16 25 3 -1 -19z"/> <path d="M1973 960 c-18 -10 -39 -31 -49 -45 -9 -14 -23 -25 -31 -25 -11 0 -11 -3 -1 -14 7 -8 15 -10 18 -6 3 4 19 14 36 23 32 16 68 61 62 78 -2 5 -17 0 -35 -11z m-5 -37 c-15 -15 -30 -25 -32 -22 -10 9 25 49 42 49 13 0 11 -6 -10 -27z"/> <path d="M2942 932 c-34 -33 -48 -53 -41 -58 6 -4 16 1 21 10 5 9 15 16 22 16 20 0 58 46 54 66 -2 13 -14 6 -56 -34z"/> <path d="M527 946 c-27 -25 -62 -85 -53 -93 14 -14 96 81 96 111 0 13 -18 5 -43 -18z m-6 -49 c-29 -29 -36 -16 -9 18 14 18 23 24 26 16 2 -7 -5 -22 -17 -34z"/> <path d="M1295 955 c-22 -7 -57 -28 -78 -48 -21 -19 -52 -37 -68 -41 -16 -3 -29 -11 -29 -17 0 -6 9 -9 20 -6 18 4 20 2 14 -16 -6 -19 -5 -20 10 -8 9 7 16 19 16 26 0 7 16 16 36 19 77 15 199 109 137 105 -10 -1 -36 -7 -58 -14z m30 -15 c3 -5 -5 -16 -17 -24 -27 -18 -109 -48 -115 -42 -5 4 107 76 119 76 4 0 9 -4 13 -10z"/> <path d="M2425 920 c-50 -50 -48 -62 5 -35 25 13 70 63 70 79 0 19 -32 0 -75 -44z"/> <path d="M919 942 c-38 -25 -78 -65 -73 -73 6 -10 96 38 112 59 27 35 4 43 -39 14z m10 -28 c-12 -14 -39 -19 -39 -8 0 11 34 33 43 27 4 -3 3 -11 -4 -19z"/> <path d="M598 933 c-21 -24 -48 -79 -48 -97 0 -8 -12 -24 -27 -36 -24 -18 -25 -20 -6 -15 15 4 25 0 32 -12 9 -15 10 -13 11 13 0 19 12 46 30 69 18 22 30 50 30 66 0 34 -2 35 -22 12z m1 -41 c-6 -18 -15 -32 -20 -32 -12 0 -11 6 7 41 19 39 28 33 13 -9z"/> <path d="M179 921 c-14 -5 -36 -14 -50 -21 -13 -8 -40 -16 -59 -19 -26 -5 -36 -12 -38 -28 -2 -12 -10 -27 -18 -33 -8 -7 -14 -18 -14 -26 0 -7 17 3 38 22 20 19 56 44 79 56 38 18 44 18 58 4 14 -14 13 -16 -7 -27 -13 -7 -46 -30 -75 -51 -29 -22 -60 -41 -70 -42 -10 -2 -19 -10 -21 -19 -4 -19 31 -13 49 9 6 8 17 14 23 14 6 0 22 12 35 25 13 14 28 25 34 25 13 0 107 96 107 110 0 11 -33 12 -71 1z m41 -26 c-15 -16 -27 -22 -33 -16 -13 13 0 31 17 25 8 -3 17 -1 21 5 3 6 9 11 12 11 4 0 -4 -11 -17 -25z"/> <path d="M1038 923 c-24 -3 -39 -10 -42 -21 -8 -22 -78 -62 -110 -62 -15 0 -26 -4 -26 -10 0 -5 10 -10 21 -10 17 0 20 -4 16 -22 -6 -20 -3 -19 17 6 15 20 28 27 39 23 9 -3 19 -2 23 4 3 6 12 8 20 5 15 -6 134 69 134 84 0 10 -19 10 -92 3z m30 -30 c-3 -17 -100 -57 -121 -50 -17 5 81 62 116 66 5 1 7 -7 5 -16z"/> <path d="M2699 903 c-47 -38 -69 -61 -105 -114 -44 -64 -50 -74 -34 -64 9 5 11 4 6 -4 -4 -6 -11 -9 -16 -6 -5 3 -26 -4 -47 -15 l-38 -21 33 4 c31 3 33 2 29 -20 -6 -34 12 -28 28 10 7 17 37 50 66 72 52 39 139 147 139 172 0 21 -25 15 -61 -14z m11 -39 c0 -19 -70 -94 -109 -117 -17 -10 -31 -15 -31 -10 0 4 27 41 61 81 56 68 79 81 79 46z"/> <path d="M2588 890 c-23 -20 -28 -30 -17 -30 19 0 69 37 69 51 0 17 -19 9 -52 -21z"/> <path d="M1623 898 c-13 -6 -23 -15 -23 -20 0 -15 37 -8 61 12 23 18 23 19 4 19 -11 0 -30 -5 -42 -11z"/> <path d="M2145 868 c-31 -36 -41 -60 -50 -114 l-7 -39 27 30 c27 31 75 121 75 143 0 21 -17 13 -45 -20z m25 -2 c0 -19 -22 -56 -30 -51 -5 3 -8 0 -5 -7 6 -16 -11 -45 -21 -35 -10 9 32 97 46 97 5 0 10 -2 10 -4z"/> <path d="M2481 870 c-23 -17 -54 -52 -69 -77 -15 -25 -38 -60 -52 -76 -14 -17 -19 -27 -11 -22 11 6 13 4 8 -11 -6 -18 -6 -18 6 0 7 10 22 31 35 46 12 15 22 32 22 37 0 5 13 16 29 26 32 19 91 82 91 97 0 17 -15 11 -59 -20z m29 -9 c0 -5 -16 -21 -35 -35 -19 -15 -35 -22 -35 -17 0 6 5 11 11 11 5 0 8 4 4 9 -3 5 5 17 17 25 25 18 38 20 38 7z"/> <path d="M2825 881 c-31 -19 -114 -101 -103 -101 24 0 99 43 121 70 43 50 35 64 -18 31z m-10 -41 c-10 -11 -25 -20 -34 -20 -11 1 -8 8 13 26 32 29 48 24 21 -6z"/> <path d="M1483 870 c-37 -22 -62 -60 -40 -60 22 0 82 44 85 63 4 22 -6 21 -45 -3z"/> <path d="M1703 869 c-7 -15 -27 -36 -47 -48 -19 -12 -49 -38 -67 -59 -18 -20 -46 -45 -63 -55 l-31 -18 27 4 c21 3 28 -1 31 -17 4 -20 4 -20 6 1 1 15 13 28 37 39 19 9 56 41 82 70 25 30 51 54 58 54 7 0 16 5 20 12 5 7 0 9 -14 6 -16 -5 -22 -1 -25 16 -3 20 -4 20 -14 -5z m-12 -46 c-16 -27 -33 -45 -69 -76 -38 -30 -54 -35 -45 -11 5 13 111 104 121 104 1 0 -2 -8 -7 -17z"/> <path d="M625 850 c-8 -16 -15 -36 -15 -45 0 -24 19 -17 26 10 3 13 12 29 20 36 18 15 18 29 -1 29 -8 0 -21 -13 -30 -30z"/> <path d="M2917 852 c-52 -31 -54 -46 -4 -30 49 15 75 30 81 44 9 23 -25 16 -77 -14z"/> <path d="M800 831 c0 -11 -27 -46 -60 -79 -33 -33 -60 -65 -60 -70 0 -27 -44 -107 -73 -135 -17 -17 -25 -28 -15 -24 11 4 18 -1 23 -16 6 -20 8 -19 15 11 9 40 30 66 30 38 0 -9 4 -15 9 -12 5 3 7 14 4 24 -2 10 9 34 26 56 17 21 43 65 58 97 22 46 34 61 56 65 15 4 27 11 27 16 0 5 -9 6 -20 3 -18 -6 -19 -4 -10 19 6 17 6 26 0 26 -6 0 -10 -9 -10 -19z m-73 -148 c-24 -38 -57 -72 -57 -59 0 11 31 69 54 99 31 42 33 8 3 -40z"/> <path d="M204 812 c-21 -16 -45 -36 -53 -45 -7 -9 -20 -17 -28 -17 -8 0 -26 -9 -40 -20 -23 -18 -24 -20 -6 -20 11 0 31 8 44 18 13 11 36 22 50 25 14 4 46 25 70 46 37 34 41 40 23 41 -12 0 -39 -13 -60 -28z"/> <path d="M1036 825 c-21 -7 -46 -21 -55 -29 -14 -15 -14 -16 2 -16 10 0 15 -5 12 -11 -4 -6 16 1 44 15 28 15 51 33 51 41 0 18 -4 18 -54 0z"/> <path d="M1544 821 c-17 -11 -49 -37 -70 -59 -22 -22 -55 -47 -74 -55 -34 -15 -34 -15 -8 -16 19 -1 28 -7 31 -23 3 -21 5 -21 16 8 7 19 27 39 54 54 47 25 94 66 108 93 13 24 -16 23 -57 -2z m16 -36 c-5 -7 -33 -24 -62 -40 l-53 -28 40 42 c22 23 45 39 52 37 7 -3 12 -2 12 2 -3 19 2 25 11 12 5 -9 5 -19 0 -25z"/> <path d="M1830 824 c-19 -8 -49 -26 -66 -39 -18 -14 -40 -25 -48 -25 -20 0 -20 -7 -1 -26 13 -14 16 -14 21 -1 3 8 20 18 38 21 36 7 113 53 120 73 7 17 -20 16 -64 -3z m25 -14 c7 -11 -61 -47 -71 -37 -10 10 7 29 23 23 8 -3 12 -2 8 3 -3 5 1 12 7 14 20 8 26 8 33 -3z"/> <path d="M2316 807 c-40 -44 -81 -117 -65 -117 15 0 95 85 115 123 13 24 13 27 -2 27 -9 0 -31 -15 -48 -33z m28 -12 c-18 -28 -34 -33 -34 -10 0 12 23 29 48 34 1 1 -5 -10 -14 -24z"/> <path d="M445 811 c-16 -10 -37 -27 -46 -37 -25 -30 -60 -96 -55 -102 7 -7 146 133 146 147 0 15 -10 14 -45 -8z m4 -28 c-13 -21 -59 -57 -64 -51 -8 7 47 68 61 68 11 0 12 -4 3 -17z"/> <path d="M682 813 c-18 -9 -42 -29 -54 -46 l-22 -30 29 7 c16 4 46 25 66 47 39 42 33 48 -19 22z"/> <path d="M2512 806 c-29 -21 -88 -96 -76 -96 13 0 84 52 103 76 38 48 24 58 -27 20z m-2 -38 c-12 -10 -25 -16 -28 -13 -9 8 30 45 41 38 6 -4 1 -14 -13 -25z"/> <path d="M2945 792 c-22 -9 -67 -16 -100 -16 -50 -1 -60 -4 -63 -20 -2 -10 1 -22 8 -26 7 -4 -17 -23 -64 -49 -57 -31 -86 -41 -121 -41 -53 0 -60 -16 -10 -26 30 -5 33 -9 25 -24 -17 -31 -11 -35 14 -10 26 24 103 44 112 29 9 -15 36 -10 58 9 12 10 54 31 93 47 40 15 81 37 90 48 12 13 -4 7 -48 -17 -68 -37 -85 -43 -74 -26 3 6 -1 10 -9 10 -9 0 -16 -7 -16 -15 0 -9 -14 -16 -37 -20 -21 -4 -63 -13 -93 -20 -30 -7 -58 -11 -62 -9 -5 3 25 22 65 43 39 20 95 50 122 65 28 16 59 30 70 32 32 6 95 36 95 46 0 11 -8 10 -55 -10z"/> <path d="M1364 785 c-10 -8 -43 -22 -71 -31 -29 -8 -53 -20 -53 -25 0 -12 2 -12 54 11 52 22 64 8 14 -15 -18 -8 -24 -12 -13 -9 11 4 41 9 68 11 43 5 68 23 30 23 -15 0 -15 1 0 18 10 10 17 22 17 25 0 12 -26 7 -46 -8z"/> <path d="M846 753 c-4 -18 -11 -32 -14 -31 -17 3 -43 -17 -61 -46 -28 -45 -43 -86 -31 -86 6 0 10 6 10 13 0 7 13 20 29 30 16 9 40 34 52 55 13 20 30 42 39 49 9 8 10 12 3 13 -6 0 -13 8 -15 18 -3 11 -7 6 -12 -15z m-16 -42 c0 -17 -48 -66 -56 -58 -4 4 5 21 21 37 31 33 35 35 35 21z"/> <path d="M1853 760 c-34 -20 -62 -60 -43 -60 17 0 52 20 78 43 42 39 19 51 -35 17z"/> <path d="M1028 760 c-9 -6 -27 -9 -40 -8 -27 2 -109 -43 -89 -50 6 -2 18 1 25 7 7 6 36 18 64 26 28 9 54 20 57 25 8 12 5 12 -17 0z"/> <path d="M2033 747 c-12 -12 -24 -33 -28 -47 l-7 -25 27 25 c15 14 31 33 36 42 14 26 -6 30 -28 5z"/> <path d="M1104 748 c-5 -7 -34 -21 -64 -31 -70 -22 -185 -79 -185 -92 0 -31 289 -21 308 11 4 8 18 14 30 14 35 0 67 11 61 21 -3 5 1 6 9 3 15 -5 34 13 24 22 -3 3 -31 -6 -63 -19 -81 -34 -119 -45 -186 -55 -48 -7 -56 -7 -47 5 9 10 7 13 -9 13 -12 0 -24 -4 -27 -10 -3 -5 -20 -10 -36 -10 -26 0 -29 2 -16 14 8 8 23 16 33 18 10 2 22 6 25 11 5 7 36 16 71 21 9 1 23 8 32 15 9 7 26 14 40 15 13 0 21 6 18 11 -3 6 1 5 9 -2 11 -9 18 -8 33 3 11 8 31 14 45 14 21 1 23 3 10 10 -9 5 -31 5 -54 0 -26 -6 -42 -5 -46 2 -4 7 -10 6 -15 -4z"/> <path d="M2663 734 c-17 -9 -39 -24 -49 -35 -16 -18 -16 -19 8 -19 27 0 89 37 96 58 5 16 -16 15 -55 -4z"/> <path d="M454 711 c-34 -21 -49 -39 -40 -48 8 -8 54 24 66 47 13 25 13 25 -26 1z"/> <path d="M133 700 c-38 -23 -41 -30 -14 -30 24 0 84 49 61 50 -8 0 -30 -9 -47 -20z"/> <path d="M1620 684 c-22 -20 -39 -39 -36 -41 9 -10 95 36 105 56 20 36 -23 26 -69 -15z"/> <path d="M600 684 c-38 -33 -67 -84 -47 -84 20 0 87 70 87 92 0 23 -3 23 -40 -8z m20 -12 c0 -5 -11 -19 -25 -32 -28 -26 -33 -16 -9 18 15 22 34 30 34 14z"/> <path d="M173 667 c-29 -17 -53 -35 -53 -38 0 -4 17 -3 37 1 38 9 84 38 91 58 6 20 -21 13 -75 -21z"/> <path d="M1733 662 c-24 -33 -36 -41 -84 -51 -68 -14 -184 -71 -184 -90 0 -24 75 -42 181 -45 87 -2 106 -6 130 -25 25 -19 29 -20 37 -6 5 10 4 21 -2 29 -9 11 -4 15 23 20 19 4 45 4 58 1 18 -5 29 1 46 24 27 36 52 39 113 12 53 -24 64 -19 43 21 -15 28 -15 34 0 64 21 45 5 51 -48 20 -40 -24 -50 -25 -137 -20 -65 3 -97 10 -105 20 -12 15 -29 20 -19 5 3 -5 1 -12 -4 -15 -5 -4 -12 -2 -15 3 -4 5 -2 12 4 16 6 4 7 11 4 17 -4 6 2 6 15 -1 11 -7 21 -16 21 -21 0 -6 5 -10 10 -10 20 0 9 18 -25 44 l-35 27 -27 -39z m209 -67 c14 -3 38 -1 52 5 24 9 26 7 26 -15 0 -22 -4 -25 -35 -25 -20 0 -57 -11 -83 -24 -48 -24 -123 -41 -216 -50 -35 -3 -45 -1 -33 6 27 15 20 27 -20 34 -35 6 -52 18 -53 35 0 6 28 18 52 23 3 0 10 4 14 8 13 14 25 -4 13 -18 -14 -17 -1 -36 26 -40 13 -2 14 1 4 12 -6 7 -15 11 -20 8 -5 -3 -9 -1 -9 5 0 14 18 23 24 12 4 -5 14 -8 24 -6 9 1 22 -2 29 -7 7 -6 14 -5 18 2 4 6 3 10 -2 9 -4 -1 -11 0 -15 1 -5 1 -18 3 -30 4 -12 0 -23 7 -26 15 -3 8 0 11 7 7 6 -4 11 -2 11 5 0 9 26 10 108 5 59 -3 119 -8 134 -11z m-361 -62 c6 -15 16 -31 22 -36 7 -4 -13 -5 -43 -1 -30 3 -57 10 -60 14 -3 4 -12 9 -19 12 -12 3 -12 6 2 11 9 3 17 2 17 -3 0 -19 28 -10 33 10 7 29 36 25 48 -7z"/> <path d="M2418 657 c-20 -12 -46 -34 -58 -49 -12 -16 -29 -28 -38 -29 -11 0 -12 -2 -4 -6 6 -2 12 -12 12 -20 0 -13 4 -12 23 5 12 12 42 39 66 60 53 47 53 72 -1 39z m-7 -39 c-34 -26 -48 -22 -21 7 12 13 27 22 33 18 6 -4 1 -14 -12 -25z"/> <path d="M2945 660 c-38 -18 -85 -53 -85 -63 0 -9 71 11 96 28 24 15 41 41 32 50 -2 2 -21 -5 -43 -15z m15 -18 c0 -10 -45 -32 -63 -32 -17 1 32 40 49 40 8 0 14 -4 14 -8z"/> <path d="M20 652 c-12 -10 -21 -26 -19 -36 3 -15 8 -13 32 12 32 33 21 52 -13 24z"/> <path d="M429 603 c-35 -38 -68 -79 -74 -94 -5 -14 -21 -53 -34 -87 -18 -48 -30 -64 -57 -77 -49 -23 -55 -39 -10 -31 21 4 36 3 36 -3 0 -5 5 -22 11 -38 l12 -28 7 25 c5 14 8 42 9 62 1 27 7 42 22 50 24 15 105 132 143 205 52 104 25 111 -65 16z m70 15 c-10 -19 -21 -23 -32 -11 -9 9 10 30 27 30 11 0 13 -5 5 -19z m-31 -39 c-7 -5 -9 -9 -5 -9 12 0 -12 -39 -62 -103 -25 -32 -57 -72 -70 -90 -21 -29 -23 -29 -16 -7 25 85 125 233 152 223 12 -5 12 -7 1 -14z"/> <path d="M1235 625 c-86 -44 -119 -65 -112 -71 4 -4 66 18 95 34 12 7 22 10 22 7 0 -9 73 24 92 42 17 15 16 33 -2 33 -4 0 -47 -20 -95 -45z m60 -2 c-18 -12 -55 -18 -55 -8 0 2 12 11 27 19 33 17 54 9 28 -11z"/> <path d="M2220 646 c-39 -26 -88 -76 -75 -76 13 0 115 80 115 90 0 13 1 13 -40 -14z"/> <path d="M1485 640 c-11 -5 -38 -25 -60 -44 l-39 -35 49 16 c48 15 95 47 95 65 0 10 -19 9 -45 -2z"/> <path d="M1364 621 c-36 -16 -90 -68 -81 -77 12 -13 137 67 137 88 0 12 -10 10 -56 -11z m21 -11 c5 -8 -43 -40 -60 -40 -15 0 -2 21 23 34 33 18 30 18 37 6z"/> <path d="M265 623 c-11 -2 -45 -13 -76 -24 -44 -15 -63 -17 -84 -9 -44 17 -62 12 -67 -15 -4 -16 0 -29 9 -34 12 -6 9 -13 -16 -34 -21 -17 -31 -35 -31 -53 0 -41 15 -17 19 31 1 6 5 4 10 -4 6 -9 11 -10 15 -2 4 6 2 11 -4 11 -6 0 3 12 20 26 23 20 34 24 42 16 8 -8 7 -13 -5 -17 -9 -3 -24 -7 -33 -10 -8 -3 -12 -10 -8 -16 4 -7 9 -7 13 -2 11 17 38 22 52 10 11 -10 11 -9 0 5 -11 15 -11 19 3 24 9 3 15 13 14 22 -2 8 3 17 10 19 8 3 10 -1 5 -13 -4 -12 -3 -15 5 -10 7 4 12 15 13 24 0 14 2 13 8 -3 8 -19 8 -19 16 4 5 18 9 20 16 10 6 -11 9 -10 15 4 6 18 34 24 34 8 0 -5 2 -16 5 -23 4 -9 -8 -20 -30 -31 -38 -18 -39 -43 -1 -33 19 5 19 3 -4 -14 -40 -30 -125 -69 -179 -82 -54 -12 -65 -30 -30 -48 27 -15 36 -6 18 17 -13 16 -12 17 3 4 15 -11 19 -11 24 2 8 22 65 41 75 25 6 -9 18 -3 42 22 19 19 68 63 110 98 91 75 101 103 35 101 -24 -1 -52 -3 -63 -6z m85 -18 c-7 -8 -9 -15 -5 -15 4 0 2 -7 -5 -15 -7 -9 -19 -14 -27 -11 -8 3 -12 2 -10 -2 3 -4 -5 -16 -16 -27 l-20 -20 12 22 c7 14 8 24 1 28 -15 10 -12 35 6 42 9 3 20 0 25 -8 7 -12 11 -11 26 4 21 21 30 23 13 2z"/> <path d="M2249 602 c-40 -27 -89 -72 -77 -72 23 0 98 36 120 57 52 50 27 59 -43 15z m31 -6 c0 -13 -23 -26 -57 -32 -20 -4 -15 2 20 25 38 25 37 25 37 7z"/> <path d="M2955 590 c-16 -16 -25 -33 -22 -37 8 -7 67 45 67 59 0 16 -17 8 -45 -22z"/> <path d="M755 564 c-27 -19 -49 -39 -47 -45 1 -6 -1 -8 -6 -5 -5 3 -18 -1 -28 -9 -18 -14 -17 -15 11 -9 80 17 149 65 127 89 -4 5 -2 5 5 1 6 -3 14 -2 18 4 14 22 -33 7 -80 -26z m22 -19 c-32 -28 -68 -36 -47 -10 7 8 16 13 20 10 4 -3 10 2 14 10 3 8 13 15 23 15 15 -1 13 -5 -10 -25z"/> <path d="M2802 593 c-6 -2 -9 -9 -6 -15 4 -6 -1 -8 -12 -4 -11 3 -26 1 -34 -4 -11 -7 -6 -10 21 -10 22 0 46 8 60 20 22 18 23 19 4 19 -11 0 -26 -3 -33 -6z"/> <path d="M990 550 c-69 -43 -65 -49 14 -25 55 17 96 40 96 55 0 21 -48 8 -110 -30z m65 3 c-18 -12 -55 -18 -55 -8 0 2 12 11 27 19 33 17 54 9 28 -11z"/> <path d="M2424 579 c-3 -6 -9 -22 -13 -36 -5 -20 -17 -29 -50 -39 -24 -7 -49 -10 -57 -7 -8 3 -14 0 -14 -6 0 -13 -56 -14 -115 -2 -56 10 -71 4 -49 -20 20 -22 40 -25 47 -6 4 10 7 10 18 0 11 -11 10 -13 -4 -13 -15 0 -21 -13 -20 -47 1 -7 -3 -11 -7 -8 -9 6 -23 -25 -15 -33 3 -3 24 8 48 25 64 46 88 48 122 13 28 -29 28 -29 54 -11 18 12 53 20 112 25 121 9 275 72 255 104 -8 14 -70 23 -153 24 -48 0 -75 5 -93 17 -36 25 -58 32 -66 20z m192 -76 c-1 -17 -8 -25 -26 -29 -14 -3 -33 -9 -42 -14 -11 -6 -19 -6 -24 2 -5 7 -3 8 6 3 9 -6 11 -4 5 5 -5 8 -4 11 3 6 11 -7 25 9 28 32 2 11 -1 11 -13 1 -8 -7 -30 -13 -49 -12 -19 0 -34 -2 -34 -6 0 -3 -12 -7 -26 -8 -36 -2 -49 -17 -29 -33 14 -11 17 -10 22 8 7 27 23 30 18 4 -3 -16 3 -19 35 -17 22 1 44 -2 51 -6 19 -11 -117 -22 -169 -13 -26 4 -69 8 -97 9 -39 1 -51 5 -53 18 -3 13 4 17 30 18 18 0 74 13 123 29 69 21 108 28 166 27 74 -1 77 -2 75 -24z m58 12 c-4 -9 0 -15 10 -15 9 0 16 5 16 10 0 6 4 10 8 10 5 0 9 -7 9 -15 0 -8 -4 -12 -9 -9 -4 3 -8 1 -8 -5 0 -10 -39 -27 -54 -22 -5 1 -12 -3 -16 -10 -5 -6 -7 1 -6 17 2 38 13 54 36 54 13 0 17 -5 14 -15z m-149 -35 c-4 -6 -10 -8 -15 -5 -5 3 -12 0 -16 -6 -4 -7 -3 -9 4 -5 6 3 13 2 16 -2 3 -5 -7 -8 -22 -7 -15 0 -25 5 -22 11 3 5 8 8 13 7 4 -2 7 2 7 7 0 6 9 10 21 10 11 0 17 -5 14 -10z"/> <path d="M539 557 c-36 -24 -88 -93 -88 -117 0 -12 2 -11 10 3 5 9 23 24 40 32 28 15 87 91 77 100 -3 3 -20 -5 -39 -18z"/> <path d="M865 551 c-32 -20 -94 -81 -82 -81 32 0 147 71 147 91 0 15 -33 10 -65 -10z m6 -33 c-13 -10 -31 -18 -40 -18 -12 1 -9 7 12 25 16 14 33 22 39 19 7 -5 3 -14 -11 -26z"/> <path d="M1223 564 c-7 -3 -10 -11 -7 -19 3 -7 -4 -18 -15 -25 -23 -12 -28 -2 -8 20 6 8 -5 0 -25 -19 -21 -19 -36 -36 -34 -38 6 -6 70 25 99 47 39 31 33 51 -10 34z"/> <path d="M2818 541 c-25 -16 -58 -45 -73 -65 -15 -20 -36 -36 -46 -36 -11 0 -19 -4 -19 -10 0 -5 8 -6 17 -3 12 5 15 2 10 -10 -3 -9 -2 -17 3 -17 5 0 11 8 14 18 3 9 21 26 41 36 19 10 58 40 87 67 42 39 49 48 32 49 -11 0 -41 -13 -66 -29z m11 -29 c-62 -46 -79 -55 -73 -38 9 23 88 79 92 66 3 -7 -6 -19 -19 -28z"/> <path d="M2969 504 c-13 -14 -50 -44 -81 -66 -32 -22 -55 -45 -52 -50 3 -5 14 -2 23 6 23 21 32 20 25 -1 -3 -10 8 -2 25 17 17 19 31 38 31 42 0 4 11 10 25 14 15 4 28 16 31 31 9 34 1 37 -27 7z"/> <path d="M1310 501 c-25 -9 -75 -36 -111 -59 -36 -23 -77 -42 -90 -42 -13 0 -30 -4 -38 -9 -10 -7 -5 -11 18 -16 27 -6 31 -10 26 -28 -5 -19 -3 -19 17 6 14 16 34 27 48 27 44 0 121 36 171 79 69 60 51 79 -41 42z m40 -12 c0 -8 5 -8 18 1 9 7 1 -2 -18 -19 -44 -40 -103 -68 -159 -77 -33 -5 -42 -4 -37 5 5 7 14 10 22 7 8 -3 14 -2 14 2 0 5 28 23 63 41 34 18 66 37 72 42 13 12 25 11 25 -2z"/> <path d="M2853 493 c-7 -3 -13 -12 -13 -20 0 -9 -8 -22 -17 -29 -31 -23 -38 -15 -12 14 15 17 11 15 -14 -7 -20 -19 -37 -39 -37 -43 0 -12 72 27 94 50 19 22 19 42 -1 35z"/> <path d="M985 478 c-16 -5 -52 -11 -80 -11 -43 -2 -50 -5 -48 -22 2 -27 -82 -85 -125 -85 -36 0 -51 -15 -22 -23 21 -5 27 -31 10 -42 -5 -3 -10 -11 -10 -16 0 -6 17 2 38 18 48 38 71 46 88 32 11 -9 19 -8 32 5 20 17 57 22 47 6 -11 -18 12 -10 30 10 10 11 32 24 49 29 20 5 31 14 30 24 -1 9 2 14 7 11 11 -6 69 49 69 65 0 14 -74 13 -115 -1z m94 -6 c9 7 5 0 -8 -15 -28 -31 -39 -34 -48 -11 -7 19 17 38 31 24 6 -6 16 -5 25 2z m-65 -27 c3 -9 -3 -19 -15 -25 -11 -6 -17 -15 -15 -19 8 -12 -34 -28 -106 -42 -35 -6 -73 -15 -85 -20 -31 -12 -29 5 2 25 14 9 25 14 25 10 0 -5 16 6 76 56 7 5 15 6 18 3 3 -4 6 -1 6 6 0 7 4 9 10 6 5 -3 18 -1 27 4 26 15 50 13 57 -4z"/> <path d="M2005 476 c-20 -8 -25 -15 -16 -20 17 -11 76 1 91 19 11 13 8 15 -16 15 -16 -1 -42 -7 -59 -14z"/> <path d="M554 464 c-18 -15 -17 -15 16 -10 43 8 64 26 29 26 -14 0 -34 -7 -45 -16z"/> <path d="M1425 447 c-16 -5 -46 -21 -65 -36 -19 -14 -44 -29 -55 -33 -16 -5 -17 -6 -3 -7 12 -1 16 -7 12 -18 -5 -16 -4 -16 8 -3 7 9 34 24 59 33 73 28 113 87 44 64z m-1 -26 c6 -9 -37 -31 -62 -31 -13 0 -12 5 8 20 27 21 46 25 54 11z"/> <path d="M697 435 c-16 -8 -43 -27 -60 -41 l-32 -27 37 7 c49 9 148 53 148 66 0 15 -61 12 -93 -5z m48 -5 c3 -5 4 -10 2 -10 -3 0 -21 -7 -42 -16 -24 -10 -36 -11 -33 -4 2 6 7 11 11 10 4 0 15 6 23 15 18 17 30 19 39 5z"/> <path d="M1663 428 c-57 -32 -143 -89 -143 -95 0 -12 65 8 85 26 11 10 32 21 46 24 29 7 79 44 79 58 0 15 -23 10 -67 -13z m27 -8 c0 -11 -33 -30 -52 -30 -7 1 -3 9 11 20 25 22 41 26 41 10z"/> <path d="M228 419 c-17 -7 -25 -15 -21 -25 3 -9 -1 -14 -12 -14 -10 0 -13 4 -8 13 4 6 -5 4 -20 -5 -14 -10 -33 -18 -41 -18 -16 0 -86 -57 -86 -70 0 -13 73 26 94 49 11 12 30 21 43 21 28 0 74 22 92 44 16 19 2 20 -41 5z"/> <path d="M505 420 c-12 -4 -27 -15 -34 -24 -23 -27 33 -20 66 9 25 22 26 24 8 24 -11 0 -29 -4 -40 -9z"/> <path d="M1524 411 c-29 -17 -74 -77 -74 -97 0 -5 13 5 29 21 16 17 43 40 60 53 51 39 39 56 -15 23z"/> <path d="M1864 396 c-60 -40 -105 -93 -96 -115 5 -13 6 -13 10 0 7 20 47 56 73 64 12 4 19 3 16 -2 -3 -5 4 -10 15 -10 21 -2 21 -2 -1 13 -11 8 -26 12 -33 8 -7 -4 -8 -3 -4 4 4 7 12 12 18 12 6 0 20 8 31 18 11 9 17 12 14 6 -4 -7 0 -14 8 -17 9 -4 12 -1 8 8 -6 18 24 32 38 18 7 -7 6 -15 -3 -24 -21 -23 -19 -37 4 -44 16 -6 18 -9 7 -16 -20 -13 -31 -11 -23 4 4 6 -3 3 -16 -8 l-23 -20 11 21 c9 18 8 25 -11 40 -16 14 -18 14 -9 2 8 -10 10 -27 6 -43 -5 -22 -11 -25 -29 -21 -14 4 -25 1 -28 -7 -4 -9 -8 -9 -15 2 -5 7 -11 9 -13 5 -3 -5 -21 -25 -42 -44 l-37 -34 11 32 c6 18 9 35 7 37 -4 4 -89 -23 -96 -30 -2 -2 15 -1 37 2 33 5 41 3 41 -10 0 -9 -4 -19 -10 -22 -5 -3 -10 -16 -10 -28 1 -19 7 -15 43 26 30 33 50 47 68 47 50 0 125 30 203 82 44 29 80 58 80 63 1 6 -40 11 -99 12 -98 2 -101 2 -151 -31z m144 11 c7 -5 12 -3 12 5 0 7 8 2 17 -12 12 -17 13 -25 5 -28 -7 -2 -18 -10 -26 -17 -7 -8 -16 -11 -20 -8 -3 4 -6 1 -6 -5 0 -7 -7 -9 -17 -5 -14 6 -12 9 11 18 28 12 28 12 5 18 -23 6 -23 7 -4 22 11 9 15 14 8 11 -6 -4 -14 -2 -17 3 -7 11 13 9 32 -2z m92 3 c0 -6 -10 -9 -22 -7 -13 2 -17 2 -10 0 7 -3 10 -9 6 -14 -4 -6 -11 -6 -20 2 -22 18 -16 29 16 29 17 0 30 -5 30 -10z"/> <path d="M2953 397 c-23 -18 -42 -36 -43 -40 0 -5 4 -6 9 -3 5 4 11 1 13 -6 7 -20 67 33 67 60 1 27 5 28 -46 -11z"/> <path d="M1725 381 c-16 -10 -39 -28 -49 -40 -11 -11 -26 -21 -35 -22 -10 0 -12 -2 -3 -6 6 -2 12 -12 12 -21 1 -13 6 -10 21 11 11 15 26 27 32 27 15 0 67 47 67 60 0 14 -11 12 -45 -9z"/> <path d="M2493 386 c3 -8 -1 -17 -9 -20 -24 -9 -36 -7 -28 5 4 7 -7 1 -24 -11 -18 -13 -30 -26 -27 -28 7 -8 94 30 111 49 16 18 16 19 -6 19 -15 0 -20 -5 -17 -14z"/> <path d="M386 369 c-28 -22 -34 -39 -12 -39 16 0 66 38 66 51 0 16 -26 10 -54 -12z"/> <path d="M2575 371 c-22 -10 -47 -26 -55 -36 -8 -10 -28 -24 -45 -31 -20 -9 -24 -13 -11 -14 13 0 16 -5 12 -17 -4 -12 -1 -11 12 5 9 12 33 27 52 32 35 10 90 53 90 70 0 14 -9 12 -55 -9z m20 -11 c7 -11 -51 -43 -68 -37 -7 2 4 14 23 25 41 26 37 25 45 12z"/> <path d="M500 354 c-25 -14 -64 -41 -87 -60 -23 -19 -52 -38 -65 -43 -18 -8 -19 -10 -5 -10 14 -1 17 -6 11 -23 -6 -20 -4 -19 16 6 13 15 44 37 69 48 25 10 65 35 88 54 69 57 52 73 -27 28z m15 -24 c-10 -11 -25 -20 -33 -20 -8 0 -30 -9 -48 -21 -58 -36 -37 -13 27 30 63 42 87 47 54 11z"/> <path d="M2720 352 c-39 -24 -42 -27 -22 -30 25 -4 83 26 90 46 6 19 -18 13 -68 -16z"/> <path d="M1372 337 c-28 -24 -38 -38 -32 -48 7 -11 10 -10 16 4 3 9 12 17 19 17 16 0 65 38 65 51 0 18 -29 8 -68 -24z"/> <path d="M1215 338 c-11 -6 -34 -23 -50 -39 -18 -17 -46 -31 -70 -34 -47 -8 -150 -52 -166 -71 -7 -8 -31 -14 -60 -14 -48 0 -49 -1 -49 -31 0 -17 4 -28 10 -24 16 10 11 -11 -6 -26 -9 -7 -29 -32 -45 -56 -23 -33 -26 -43 -14 -43 8 0 15 3 15 8 0 17 106 129 156 165 45 31 58 36 69 27 19 -16 19 -36 -1 -44 -8 -3 -13 -10 -10 -14 7 -12 -38 -52 -113 -101 -49 -30 -59 -41 -42 -41 12 0 36 14 53 30 16 17 34 27 40 24 5 -3 25 12 44 35 20 23 42 41 50 41 7 0 16 11 20 25 3 14 10 25 15 25 5 0 19 18 31 40 25 43 38 51 38 23 0 -14 3 -13 16 5 8 12 21 22 29 22 16 0 85 58 85 71 0 12 -21 11 -45 -3z m-6 -39 c-40 -31 -54 -23 -17 10 11 11 25 18 31 14 5 -3 -1 -14 -14 -24z m-126 -68 c-3 -11 -14 -28 -24 -37 -19 -17 -20 -17 -37 0 -16 16 -16 18 3 32 12 9 21 11 23 4 5 -15 22 -12 22 5 0 8 4 15 9 15 5 0 7 -9 4 -19z"/> <path d="M2154 336 c-28 -13 -69 -55 -60 -63 13 -13 106 48 106 69 0 11 -9 10 -46 -6z"/> <path d="M2732 303 c-62 -25 -111 -47 -109 -49 2 -2 44 12 93 32 83 33 144 50 144 39 0 -16 -88 -58 -160 -75 -47 -12 -94 -23 -105 -26 -20 -5 -20 -5 0 12 18 15 18 16 2 10 -10 -3 -42 -6 -70 -6 -48 -1 -50 -2 -33 -15 11 -8 28 -15 38 -15 15 0 17 -3 8 -19 -17 -32 -12 -34 20 -7 31 25 50 32 168 61 64 15 145 62 155 90 10 26 -30 17 -151 -32z"/> <path d="M564 325 c-16 -13 -16 -14 -1 -9 9 3 17 2 17 -4 0 -14 -26 -22 -37 -11 -6 6 -15 4 -23 -6 -7 -8 -10 -18 -7 -22 9 -8 99 39 105 55 5 17 -30 15 -54 -3z"/> <path d="M950 300 c-47 -22 -94 -40 -105 -40 -11 -1 -33 -7 -50 -15 -28 -12 -28 -13 -6 -14 15 -1 21 -6 18 -14 -3 -8 12 -5 42 9 25 13 65 25 88 28 51 6 126 43 118 57 -4 5 -1 8 6 7 6 -2 14 3 16 10 9 23 -41 12 -127 -28z m90 9 c0 -13 -53 -35 -105 -43 l-40 -7 55 30 c57 31 90 39 90 20z"/> <path d="M2040 318 c-18 -13 -40 -34 -49 -48 l-16 -24 41 23 c37 21 71 58 61 67 -2 2 -19 -6 -37 -18z"/> <path d="M2320 334 c-8 -3 -40 -16 -70 -29 -30 -13 -68 -26 -83 -30 -21 -4 -27 -10 -23 -21 4 -10 -3 -24 -19 -36 -14 -11 -44 -47 -66 -80 -22 -32 -47 -62 -55 -65 -8 -3 -14 -9 -14 -15 0 -5 5 -6 12 -2 7 5 9 2 5 -9 -4 -11 -2 -14 9 -10 15 6 46 57 50 83 6 36 224 203 224 173 0 -5 4 -2 8 4 4 7 19 14 32 16 13 2 26 9 28 15 4 12 -11 14 -38 6z"/> <path d="M134 315 c-10 -8 -27 -15 -36 -15 -10 0 -18 -4 -18 -10 0 -5 -18 -27 -40 -47 -26 -25 -40 -47 -40 -63 l1 -25 20 28 c11 15 25 27 31 27 16 0 122 78 136 100 11 18 10 20 -11 20 -13 0 -32 -7 -43 -15z m20 -14 c7 -11 -20 -34 -73 -61 -54 -27 -50 -13 9 34 48 38 56 41 64 27z"/> <path d="M2943 317 c-23 -7 -48 -18 -55 -26 -11 -11 -10 -12 7 -8 11 3 39 9 63 12 26 4 42 12 42 21 0 16 0 16 -57 1z"/> <path d="M605 288 c-27 -18 -53 -36 -59 -40 -6 -4 -24 -10 -41 -14 -28 -7 -28 -8 -7 -12 17 -2 22 -8 17 -20 -4 -12 1 -10 18 6 13 12 32 22 43 22 25 0 90 44 104 70 17 31 -18 26 -75 -12z m43 0 c-6 -17 -65 -51 -79 -46 -6 2 6 16 28 31 41 29 57 34 51 15z"/> <path d="M2584 306 c-40 -18 -52 -36 -24 -36 26 0 80 27 80 40 0 13 -19 12 -56 -4z"/> <path d="M2320 295 c-7 -8 -18 -15 -25 -15 -7 0 -15 -7 -18 -15 -4 -8 -51 -44 -107 -81 -55 -37 -98 -69 -96 -72 3 -2 21 8 40 23 20 15 36 25 36 21 0 -3 24 12 53 34 28 22 56 40 60 40 10 0 79 72 74 77 -2 2 -10 -3 -17 -12z"/> <path d="M1265 284 c-16 -8 -39 -24 -51 -35 -11 -10 -31 -19 -44 -19 -23 0 -23 0 -5 -18 18 -17 20 -17 37 0 10 10 25 18 33 18 22 0 75 41 75 57 0 17 -8 16 -45 -3z m15 -14 c0 -10 -32 -30 -50 -30 -6 0 -8 5 -5 10 4 6 10 8 15 5 4 -3 10 2 14 10 6 17 26 21 26 5z"/> <path d="M2390 278 c-18 -13 -43 -38 -54 -57 l-20 -34 42 23 c43 24 76 63 70 81 -2 6 -19 0 -38 -13z"/> <path d="M1385 266 c-16 -7 -39 -23 -50 -36 -11 -13 -33 -29 -50 -36 -19 -8 -23 -13 -12 -14 9 0 17 -6 17 -12 1 -9 5 -8 13 3 7 9 24 19 39 22 29 8 98 62 98 78 0 12 -20 11 -55 -5z m16 -21 c-1 -12 -63 -47 -70 -39 -7 7 51 55 62 51 5 -1 8 -7 8 -12z"/> <path d="M1943 260 c-4 -14 -11 -19 -24 -15 -23 8 -83 -18 -123 -52 -18 -16 -55 -44 -83 -63 -29 -19 -51 -36 -49 -37 6 -6 103 46 116 62 7 8 19 15 28 15 31 0 162 82 162 102 0 17 -22 7 -27 -12z m-60 -37 c6 -6 -18 -21 -55 -36 -29 -10 -21 11 10 27 31 17 36 18 45 9z"/> <path d="M175 258 c-26 -14 -75 -60 -75 -69 0 -12 72 20 98 44 36 34 22 50 -23 25z m0 -35 c-11 -7 -26 -13 -34 -13 -12 1 -10 6 8 20 12 11 28 17 34 13 6 -4 3 -11 -8 -20z"/> <path d="M1594 254 c-18 -14 -18 -15 6 -4 23 10 24 10 7 -4 -11 -8 -25 -12 -33 -9 -8 3 -14 0 -14 -6 0 -19 38 -12 67 14 26 22 26 24 7 25 -11 0 -29 -7 -40 -16z"/> <path d="M704 245 c4 -11 -3 -19 -20 -25 -37 -15 -42 -12 -15 10 13 11 19 20 15 20 -5 -1 -22 -12 -39 -25 l-30 -25 30 0 c32 0 95 33 95 50 0 5 -9 10 -21 10 -15 0 -19 -5 -15 -15z"/> <path d="M1967 180 c-39 -38 -67 -70 -60 -70 7 0 24 11 39 25 15 14 33 25 40 25 15 0 84 66 84 80 0 25 -36 4 -103 -60z m50 15 c-37 -33 -57 -32 -27 0 13 14 31 25 39 25 11 -1 8 -8 -12 -25z"/> <path d="M2875 233 c-22 -9 -60 -19 -85 -22 -32 -4 -44 -10 -43 -21 2 -15 -84 -73 -167 -112 -36 -18 -41 -22 -24 -25 12 -2 48 5 80 16 36 12 64 16 74 11 13 -7 63 12 80 31 3 3 30 14 59 25 30 12 57 26 59 32 2 6 -25 -1 -60 -17 -35 -16 -88 -34 -118 -41 -30 -7 -63 -17 -72 -22 -10 -5 -18 -5 -18 0 0 10 107 72 193 110 52 24 67 27 67 16 0 -8 -7 -17 -15 -20 -8 -4 -15 -10 -15 -16 0 -5 4 -6 10 -3 5 3 19 8 31 10 25 5 46 22 60 47 9 16 6 18 -23 17 -18 0 -51 -7 -73 -16z"/> <path d="M1400 184 c-33 -31 -59 -59 -56 -61 2 -3 24 4 49 15 41 18 87 66 87 91 0 21 -20 10 -80 -45z m32 -6 c-17 -18 -35 -29 -38 -25 -10 9 36 58 47 51 5 -3 9 0 9 7 0 7 3 9 7 5 4 -3 -7 -21 -25 -38z"/> <path d="M261 209 c-13 -5 -41 -25 -63 -44 -21 -19 -44 -35 -51 -36 -6 0 -3 -4 8 -8 12 -5 25 -3 33 6 7 7 20 13 27 13 16 0 85 58 85 71 0 11 -8 11 -39 -2z m-1 -27 c0 -11 -41 -34 -48 -27 -4 4 2 13 12 21 22 15 36 18 36 6z"/> <path d="M2275 200 c-21 -8 -84 -70 -72 -70 4 0 22 6 40 14 57 24 88 78 32 56z"/> <path d="M2405 193 c-16 -8 -43 -28 -60 -43 -16 -15 -39 -31 -50 -35 -18 -7 -18 -9 -2 -12 9 -3 17 -12 18 -21 0 -12 3 -10 9 6 5 12 22 27 37 33 40 15 93 58 93 75 0 18 -7 17 -45 -3z m-4 -33 c-13 -11 -31 -20 -40 -20 -12 1 -11 5 8 20 13 11 31 20 40 20 12 -1 11 -5 -8 -20z"/> <path d="M1595 188 c-16 -5 -48 -10 -70 -11 -31 -2 -41 -6 -43 -22 -6 -31 -70 -92 -106 -100 -28 -7 -29 -8 -8 -12 15 -3 22 -10 18 -19 -8 -20 3 -17 22 5 10 11 33 21 52 23 19 2 41 9 48 15 7 7 20 13 28 13 39 0 154 79 154 106 0 16 -49 18 -95 2z m70 -8 c-12 -5 -14 -9 -6 -9 8 -1 11 -4 8 -7 -4 -4 -14 -1 -23 7 -15 12 -16 11 -10 -8 6 -19 1 -25 -33 -43 -38 -19 -191 -71 -191 -65 0 2 28 25 63 52 75 59 123 80 187 81 23 1 23 0 5 -8z"/> <path d="M365 160 c-19 -36 -19 -40 0 -40 8 0 15 6 15 14 0 17 27 29 36 15 3 -6 3 -13 0 -16 -3 -4 -6 -1 -6 6 0 7 -5 9 -10 6 -6 -4 -8 -10 -5 -15 5 -8 -132 -80 -153 -80 -7 0 -12 -4 -12 -9 0 -14 -31 -24 -100 -32 l-65 -7 75 2 c58 1 87 8 129 28 30 15 59 24 64 21 6 -4 7 -1 2 8 -5 8 9 1 31 -16 21 -16 33 -22 26 -13 -13 16 -2 34 12 21 9 -9 36 -13 34 -5 -1 4 2 15 7 25 7 17 8 17 29 0 21 -18 21 -18 3 3 -9 11 -14 25 -10 29 5 5 1 4 -9 -3 -21 -16 -33 1 -13 18 12 10 18 10 30 0 8 -7 15 -9 15 -5 0 4 8 1 18 -6 15 -13 16 -12 3 3 -7 10 -18 15 -25 11 -6 -3 -8 -2 -3 2 9 10 48 15 42 5 -2 -4 2 -7 9 -7 8 0 12 6 9 14 -9 23 14 14 31 -12 9 -14 20 -24 24 -23 15 3 42 -15 36 -24 -4 -6 -10 -5 -15 3 -6 11 -15 10 -44 -4 -20 -9 -34 -21 -30 -26 5 -9 -64 -36 -115 -44 -21 -4 -19 -5 7 -6 60 -2 238 76 283 124 21 22 22 28 10 35 -21 13 -162 12 -214 -1 -37 -9 -48 -8 -82 10 -49 27 -51 27 -69 -9z m305 -15 c0 -14 12 -19 33 -16 16 2 5 -9 -22 -24 -47 -24 -88 6 -55 40 20 19 44 19 44 0z m-241 -54 c12 -22 -11 -52 -24 -31 -5 8 -11 8 -21 -1 -8 -6 -14 -10 -15 -8 -6 31 -6 38 1 34 4 -3 13 2 20 10 17 20 27 19 39 -4z"/> <path d="M1080 134 c-23 -25 -40 -48 -37 -50 11 -11 58 22 82 57 36 55 8 51 -45 -7z"/> <path d="M64 151 c-30 -18 -64 -57 -64 -73 0 -11 60 17 97 46 18 15 33 31 33 36 0 16 -33 11 -66 -9z m30 -9 c6 -10 -53 -47 -61 -39 -8 8 7 28 17 22 4 -3 10 2 14 10 6 16 22 20 30 7z"/> <path d="M1180 150 c-19 -10 -44 -29 -55 -41 l-20 -24 26 23 c26 23 45 30 34 12 -3 -5 -1 -10 6 -10 7 0 0 -13 -16 -30 -16 -16 -24 -30 -18 -30 10 0 69 66 87 97 11 20 -8 22 -44 3z"/> <path d="M2559 141 c-44 -27 -94 -80 -85 -88 14 -15 146 81 146 106 0 17 -12 13 -61 -18z m22 -10 c-13 -24 -59 -54 -74 -48 -7 3 -4 8 8 13 11 4 30 18 42 31 27 28 37 30 24 4z"/> <path d="M2427 130 c-26 -16 -47 -34 -47 -40 0 -5 -15 -16 -32 -24 -20 -9 -26 -15 -15 -15 9 -1 17 -9 18 -18 0 -15 2 -14 11 4 6 12 26 27 44 33 39 13 80 44 94 71 16 29 -17 25 -73 -11z m38 -11 c-8 -12 -66 -42 -71 -36 -8 8 57 57 67 51 5 -3 7 -10 4 -15z"/> <path d="M248 129 c-21 -11 -38 -22 -38 -25 0 -3 4 -3 9 1 5 3 12 1 15 -3 3 -5 -11 -14 -32 -20 -33 -10 -35 -10 -18 3 11 8 15 15 9 15 -6 0 -21 -9 -34 -20 -24 -19 -24 -19 -2 -20 33 0 105 34 132 64 30 32 13 34 -41 5z"/> <path d="M1803 127 c-62 -33 -166 -121 -147 -125 22 -5 46 6 39 18 -4 6 -3 10 2 9 12 -3 65 12 98 29 35 17 73 50 86 75 14 25 -25 22 -78 -6z m35 -14 c-3 -18 -114 -80 -124 -70 -6 6 104 87 118 87 5 0 8 -8 6 -17z"/> <path d="M2843 110 c-28 -17 -73 -80 -58 -80 26 0 105 65 105 87 0 18 -9 16 -47 -7z m-5 -39 c-32 -26 -37 -17 -7 15 13 14 25 20 27 14 2 -6 -7 -19 -20 -29z"/> <path d="M2965 106 c-17 -13 -43 -31 -60 -40 l-30 -17 31 5 c18 3 47 12 65 21 19 8 26 13 17 10 -22 -6 -23 -1 -2 20 26 25 11 26 -21 1z"/> <path d="M1915 79 c-27 -21 -50 -44 -50 -51 0 -7 -14 -13 -33 -14 -46 -2 -53 -14 -9 -14 28 0 48 10 96 50 33 27 62 54 66 60 14 22 -23 6 -70 -31z"/> <path d="M2100 84 c-46 -42 -53 -63 -12 -37 36 22 72 55 72 65 0 17 -21 7 -60 -28z"/> <path d="M2194 91 c-35 -22 -88 -84 -74 -89 18 -6 103 57 121 91 13 23 -7 22 -47 -2z m17 -24 c-16 -19 -71 -49 -71 -38 0 15 61 62 71 55 7 -4 6 -10 0 -17z"/> <path d="M1259 72 c-24 -16 -53 -39 -63 -50 -19 -22 -19 -22 1 -22 11 0 30 11 43 25 12 13 27 22 31 19 5 -3 9 2 9 10 0 9 7 16 15 16 8 0 15 5 15 12 0 6 3 9 6 5 3 -3 -3 -18 -13 -34 -28 -39 -35 -53 -29 -53 3 0 17 17 31 37 46 68 28 81 -46 35z"/> <path d="M45 57 c-39 -21 -39 -22 -13 -25 29 -3 88 22 88 38 0 16 -32 11 -75 -13z"/> <path d="M1565 61 c-55 -36 -81 -61 -64 -61 8 0 25 11 37 25 13 14 27 23 33 19 7 -4 4 -13 -7 -25 -9 -10 -12 -19 -6 -19 9 0 34 30 56 68 11 18 -15 15 -49 -7z"/> <path d="M1075 46 c-17 -7 -36 -20 -44 -29 -17 -22 -3 -22 20 -1 19 17 43 10 33 -9 -3 -7 4 -1 15 12 36 40 28 50 -24 27z"/> <path d="M2235 21 c-35 -16 -37 -18 -13 -17 14 0 24 5 21 10 -3 4 3 5 14 2 12 -4 25 -1 33 9 18 21 -4 20 -55 -4z"/> </g> </svg> 